Simulation
nRows=32
nColumns=15
endheader
time  TH_x TH_y TH_z SC_y  SC_z  SC_x  AC_y  AC_z  AC_x  GH_y  GH_z  GH_yy  EL_x  PS_y
0.0  0.000000  0.000000  0.000000  -27.97009713762862  4.560559826388393  1.8095281903341822  49.8004532393072  6.62227548690675  -3.2742010921839877  30.20427558940281  5.439800210443857  20.259825375755643  20.74052669482385  120.000000
0.031  0.000000  0.000000  0.000000  -28.44505665309461  5.781402353292307  1.1826836794338471  49.47179206032495  6.707193493139482  -2.184369575693854  19.73073640173273  5.834352677238661  30.499877249668156  20.350627323588462  120.000000
0.062  0.000000  0.000000  0.000000  -28.87966063471973  6.916189151806306  0.7231301006955181  49.20181983709577  6.621297136976417  -1.1360387221342236  12.012521571700331  6.353384808103248  37.995896112720615  19.994192290022962  120.000000
0.093  0.000000  0.000000  0.000000  -29.26926215196195  7.974346693581754  0.4127896260959625  49.0282889491011  6.3969136670241875  -0.15286780866841343  6.9081617615439885  6.911671425221697  42.87434715359626  19.660515864361116  120.000000
0.124  0.000000  0.000000  0.000000  -29.624655995403085  8.966705304544918  0.23167957479176593  48.961923890850514  6.073592843437464  0.751219116530817  3.900507362302735  7.451209369770204  45.627942904087554  19.33668911400283  120.000000
0.155  0.000000  0.000000  0.000000  -29.964735941933554  9.898071841971202  0.1606763606833742  48.98688642449571  5.694309462035046  1.572460216952028  2.3758446613238386  7.947774814804176  46.841764708564455  19.00738159265511  120.000000
0.186  0.000000  0.000000  0.000000  -30.31500299742308  10.772758450329524  0.188216173009964  49.07470973950839  5.297843367565475  2.3090354718623773  1.8350550139292827  8.4025615438694  46.979907714871786  18.660297431473  120.000000
0.217  0.000000  0.000000  0.000000  -30.699016913584952  11.593724048133543  0.3091522211738067  49.195401028278994  4.916391835019193  2.9578438146340607  1.8956305763686965  8.83142615753783  46.3895950752534  18.28645431678  120.000000
0.248  0.000000  0.000000  0.000000  -31.13593915325705  12.36455240316834  0.5194445226865501  49.323687302943696  4.575194517563577  3.5158564737508335  2.2760668671674873  9.256114982848743  45.322969215756885  17.883506365169854  120.000000
0.279  0.000000  0.000000  0.000000  -31.635326413829134  13.08798417113163  0.815536213563784  49.441850181199484  4.291072042423154  3.9819808964534795  2.755925629892661  9.700441275442188  43.98422545223624  17.45498905305573  120.000000
0.31  0.000000  0.000000  0.000000  -32.20002044450501  13.764802495407594  1.193257269411238  49.53821220320522  4.072356809890154  4.3590091168019285  3.170528318922374  10.187657432235895  42.534046167628894  17.00935193176728  120.000000
0.34099999999999997  0.000000  0.000000  0.000000  -32.82565431622512  14.39460535759191  1.647008428500276  49.60899724924468  3.919196701817417  4.652266921913544  3.410225995977249  10.738861762814054  41.08877754271194  16.55672672356182  120.000000
0.372  0.000000  0.000000  0.000000  -33.504885295987556  14.975704808683654  2.1689211694825934  49.6548995356273  3.8250009538493748  4.869755904425015  3.4162170517377066  11.372252856788865  39.720443156663784  16.107102828298764  120.000000
0.403  0.000000  0.000000  0.000000  -34.2268842682751  15.506127126606545  2.7486284196191995  49.68152747333356  3.778717387430774  5.0204877838225235  3.171767028268334  12.103136292880972  38.463775262342104  15.66800025796514  120.000000
0.434  0.000000  0.000000  0.000000  -34.9794853523061  15.9837971680015  3.373477330088933  49.69624868156047  3.767254676076674  5.114579923141936  2.69053366516357  12.943938281364789  37.3254805687505  15.244437379670039  120.000000
0.46499999999999997  0.000000  0.000000  0.000000  -35.74867035336707  16.4065974265189  4.028525024710903  49.70783925290722  3.7776826257065586  5.162286961553756  2.002548430598655  13.90406844516194  36.29758142324719  14.83807259771536  120.000000
0.496  0.000000  0.000000  0.000000  -36.51969254274316  16.772810584531836  4.697642672268285  49.7247568766441  3.798746320328461  5.173480083362041  1.146386211907035  14.989862825567853  35.36373855579478  14.448282484915078  120.000000
0.527  0.000000  0.000000  0.000000  -37.27722291998744  17.08097747781135  5.364376137769087  49.75471744404664  3.821753923987047  5.157136863540999  0.16088620311434104  16.204754510677137  34.50710949570655  14.071995371716456  120.000000
0.558  0.000000  0.000000  0.000000  -38.00680798271087  17.3301434019743  6.012716083716736  49.80361880552432  3.8409225417286326  5.121148293221257  -0.9174420129639975  17.549264416908848  33.71172113240547  13.705141355787541  120.000000
0.589  0.000000  0.000000  0.000000  -38.695383909382954  17.519969803623372  6.627502937367608  49.875832546544366  3.8536030611128016  5.07213146961027  -2.0561099994935437  19.021473313316466  32.963842647904414  13.343093910303944  120.000000
0.62  0.000000  0.000000  0.000000  -39.33238211100697  17.65065828645646  7.195784238008158  49.97385052655992  3.8597399095357736  5.015293070821107  -3.225921538775337  20.61732470268215  32.250324355215646  12.982369971548525  120.000000
0.651  0.000000  0.000000  0.000000  -39.910329318652316  17.722704622438886  7.707138845855343  50.09857283776638  3.861475680094993  4.954824314449073  -4.4013340663551475  22.330943035103942  31.558769412411866  12.621249237408474  120.000000
0.6819999999999999  0.000000  0.000000  0.000000  -40.42512025383261  17.737210032860375  8.154093639048094  50.24979944336383  3.8625780014180586  4.893656326855381  -5.559414443352359  24.154468266759363  30.875908538712178  12.261016439767896  120.000000
0.713  0.000000  0.000000  0.000000  -40.87632211947366  17.695427840886847  8.532592847120254  50.42645618853328  3.867273840386277  4.8334983219851955  -6.680358667105162  26.078015135897562  30.188204163200027  11.9056197357932  120.000000
0.744  0.000000  0.000000  0.000000  -41.266597737113095  17.599099732464836  8.840921430657403  50.62700185199771  3.880683910194842  4.7755185558205815  -7.746940936756862  28.089450765943297  29.48118654135462  11.561335635734025  120.000000
0.775  0.000000  0.000000  0.000000  -41.60126552178909  17.450345135947444  9.080096420897545  50.84982433438667  3.9078394859381373  4.720350984022319  -8.74459225671572  30.17457139429563  28.740070160119707  11.235083575011165  120.000000
0.806  0.000000  0.000000  0.000000  -41.88731016516769  17.251715819737335  9.252283698250709  51.09338614345284  3.9544553088577974  4.669104190343251  -9.661416063179294  32.317398208639766  27.950282761441176  10.932997564699324  120.000000
0.837  0.000000  0.000000  0.000000  -42.13251371059545  17.00661111368195  9.36162891558669  51.356477924883734  4.02625602256367  4.6233714897837475  -10.487983997892066  34.50114566901232  27.098338298754335  10.65861845714561  120.000000
0.868  0.000000  0.000000  0.000000  -42.34431646650695  16.719302598008255  9.41381405762211  51.63820303521738  4.128861342791861  4.58517591090985  -11.217699701589998  36.70903101945887  26.173319947548272  10.412133070940873  120.000000
0.899  0.000000  0.000000  0.000000  -42.52913196199403  16.394955854410448  9.4159438420879  51.93766241706697  4.267012641353265  4.556807585746478  -11.847057703754103  38.924874521247666  25.168459758359745  10.189936732690684  120.000000
0.9299999999999999  0.000000  0.000000  0.000000  -42.691667748827705  16.03953338678703  9.375304408837712  52.253535631661435  4.444319123258823  4.540283409315022  -12.375996372459845  41.133489660998194  24.082672737017358  9.98538391969744  120.000000
0.961  0.000000  0.000000  0.000000  -42.834836840392676  15.659461876098604  9.298803181715542  52.58334911757652  4.662187972017851  4.536681085790532  -12.808062986031622  43.32067916715218  22.921608998479986  9.789561441196238  120.000000
